# xmcd
#
# Track frame offsets: 
#        150
#        16812
#        31115
#        52177
#        74025
#        98687
#        112005
#        130990
#        151470
#        181795
#        188797
#
# Disc length: 2906 seconds
#
# Revision: 0
# Processed by: cddbd v1.5.2PL0 Copyright (c) Steve Scherf et al.
# Submitted via: ExactAudioCopy v0.95b4
#
DISCID=920b580b
DTITLE=Grizzly Brothers - Home For Breakfast
DYEAR=1900
DGENRE=Blues
TTITLE0=Wake up Call
TTITLE1=Paper Thin
TTITLE2=Outside Woman Blues
TTITLE3=Muddy Water Blues
TTITLE4=Anybody There?
TTITLE5=Used to Worry
TTITLE6=Slow Turning
TTITLE7=Drunk, Don't Drive
TTITLE8=Baby Please Don't Go_Oh Well
TTITLE9=Hush
TTITLE10=Red House
EXTD=
EXTT0=
EXTT1=
EXTT2=
EXTT3=
EXTT4=
EXTT5=
EXTT6=
EXTT7=
EXTT8=
EXTT9=
EXTT10=
PLAYORDER=
